<svg width="44" height="22" viewBox="0 0 44 22" fill="none" xmlns="http://www.w3.org/2000/svg">
<path d="M0 0H38C41.3137 0 44 2.68629 44 6V16C44 19.3137 41.3137 22 38 22H0V0Z" fill="#E23535"/>
<path d="M16.1784 6.27273H15.1387V13.142H15.0534L10.2807 6.27273H9.25799V15H10.3148V8.14773H10.4L15.1557 15H16.1784V6.27273ZM18.2931 15H23.6284V14.0625H19.35V11.0966H23.2875V10.1591H19.35V7.21023H23.5602V6.27273H18.2931V15ZM27.0502 15H28.1412L30.0673 8.04545H30.1355L32.0616 15H33.1525L35.5389 6.27273H34.465L32.6412 13.3807H32.5559L30.698 6.27273H29.5048L27.6468 13.3807H27.5616L25.7377 6.27273H24.6639L27.0502 15Z" fill="white"/>
</svg>
