<svg width="44" height="22" viewBox="0 0 44 22" fill="none" xmlns="http://www.w3.org/2000/svg">
<path d="M0 0H38C41.3137 0 44 2.68629 44 6V16C44 19.3137 41.3137 22 38 22H0V0Z" fill="#E23535"/>
<path d="M11.8514 6.27273H10.6071L13.4196 10.6364L10.6071 15H11.8514L14.1014 11.4375H14.1696L16.4196 15H17.6639L14.9196 10.6364L17.6639 6.27273H16.4196L14.1696 9.90341H14.1014L11.8514 6.27273ZM19.0392 6.27273V15H20.062L24.8176 8.14773H24.9029V15H25.9597V6.27273H24.937L20.1642 13.142H20.079V6.27273H19.0392ZM27.5971 7.21023H30.3414V15H31.3983V7.21023H34.1426V6.27273H27.5971V7.21023Z" fill="white"/>
</svg>
